<svg width="140" height="140" viewBox="0 0 141 140" fill="none" xmlns="http://www.w3.org/2000/svg">
<path opacity="0.4" d="M70.5 128.333C102.717 128.333 128.833 102.217 128.833 70.0001C128.833 37.7835 102.717 11.6667 70.5 11.6667C38.2833 11.6667 12.1666 37.7835 12.1666 70.0001C12.1666 102.217 38.2833 128.333 70.5 128.333Z" fill="#F9AD91"/>
<path d="M92.1417 92.925C91.3834 92.925 90.625 92.75 89.925 92.2833L71.8417 81.4917C67.35 78.8084 64.025 72.9167 64.025 67.725V43.8083C64.025 41.4167 66.0084 39.4333 68.4 39.4333C70.7917 39.4333 72.775 41.4167 72.775 43.8083V67.725C72.775 69.825 74.525 72.9167 76.3334 73.9667L94.4167 84.7583C96.5167 85.9833 97.1584 88.6667 95.9334 90.7667C95.0584 92.1667 93.6 92.925 92.1417 92.925Z" fill="#F9AD91"/>
</svg>
