<svg width="68" height="60" viewBox="0 0 68 60" fill="none" xmlns="http://www.w3.org/2000/svg">
<path d="M23.7143 52.7452L23.2823 53.6471C23.5554 53.7779 23.8731 53.7779 24.1462 53.6471L23.7143 52.7452ZM23.7143 52.7452C24.1462 53.6471 24.1466 53.647 24.147 53.6468L24.1482 53.6462L24.1521 53.6443L24.1659 53.6377L24.2164 53.613C24.2602 53.5916 24.3239 53.5601 24.4063 53.5188C24.571 53.4363 24.8103 53.3144 25.1134 53.1546C25.7197 52.8353 26.5822 52.3642 27.6157 51.7537C29.6806 50.534 32.4391 48.7509 35.2028 46.5006C40.668 42.0508 46.4286 35.5506 46.4286 27.785C46.4286 26.2054 45.8881 23.8866 44.266 21.9442C42.6108 19.9622 39.906 18.4649 35.7778 18.4649C31.6671 18.4649 28.4256 19.9448 26.2053 21.8215C25.1387 22.723 24.301 23.7217 23.7143 24.7018C23.1276 23.7217 22.2899 22.723 21.2233 21.8215C19.003 19.9448 15.7615 18.4649 11.6508 18.4649C7.52259 18.4649 4.81778 19.9622 3.16261 21.9442C1.54045 23.8866 1 26.2054 1 27.785C1 35.5506 6.76058 42.0508 12.2257 46.5006C14.9895 48.7509 17.748 50.534 19.8128 51.7537C20.8464 52.3642 21.7089 52.8353 22.3151 53.1546C22.6183 53.3144 22.8576 53.4363 23.0223 53.5188C23.1046 53.5601 23.1684 53.5916 23.2121 53.613L23.2627 53.6377L23.2764 53.6443L23.2804 53.6462L23.2816 53.6468C23.282 53.647 23.2823 53.6471 23.7143 52.7452Z" fill="#DEB3A4" stroke="black" stroke-width="2" stroke-linecap="round" stroke-linejoin="round"/>
<path d="M51.7779 58L51.3444 58.9011C51.6183 59.033 51.9374 59.033 52.2114 58.9011L51.7779 58ZM51.7779 58C52.2114 58.9011 52.2117 58.901 52.2121 58.9008L52.213 58.9004L52.2159 58.899L52.2256 58.8943L52.2601 58.8774C52.2897 58.8628 52.3324 58.8416 52.3874 58.814C52.4972 58.7587 52.656 58.6774 52.8567 58.5712C53.2581 58.3587 53.828 58.0461 54.5104 57.6412C55.8729 56.8328 57.6949 55.65 59.5221 54.1556C63.115 51.2171 67.0001 46.8519 67.0001 41.5788C67.0001 40.4746 66.6268 38.868 65.5049 37.5186C64.3497 36.1292 62.477 35.105 59.6791 35.105C56.8991 35.105 54.6975 36.1114 53.185 37.3956C52.6218 37.8737 52.1501 38.3937 51.7779 38.9201C51.4057 38.3937 50.9339 37.8737 50.3708 37.3956C48.8582 36.1114 46.6567 35.105 43.8767 35.105C41.0788 35.105 39.2061 36.1292 38.0509 37.5186C36.929 38.868 36.5557 40.4746 36.5557 41.5788C36.5557 46.8519 40.4407 51.2171 44.0337 54.1556C45.8609 55.65 47.6829 56.8328 49.0454 57.6412C49.7277 58.0461 50.2977 58.3587 50.699 58.5712C50.8998 58.6774 51.0586 58.7587 51.1684 58.814C51.2233 58.8416 51.2661 58.8628 51.2957 58.8774L51.3301 58.8943L51.3398 58.899L51.3427 58.9004L51.3437 58.9008C51.3441 58.901 51.3444 58.9011 51.7779 58Z" fill="white" stroke="black" stroke-width="2" stroke-linecap="round" stroke-linejoin="round"/>
<line y1="-0.5" x2="12.5321" y2="-0.5" transform="matrix(-0.575964 0.817475 -0.942431 -0.334402 36.5391 1.02448)" stroke="black"/>
<line y1="-0.5" x2="13.3013" y2="-0.5" transform="matrix(0.721616 0.692293 -0.885417 0.464797 9.11035 2.04895)" stroke="black"/>
<line x1="24.0469" x2="24.0469" y2="11.4539" stroke="black"/>
</svg>
