<svg width="140" height="140" viewBox="0 0 140 140" fill="none" xmlns="http://www.w3.org/2000/svg">
<path opacity="0.4" d="M120.283 49.2916C114.158 22.3416 90.6499 10.2083 69.9999 10.2083C69.9999 10.2083 69.9999 10.2083 69.9416 10.2083C49.3499 10.2083 25.7833 22.2833 19.6583 49.2333C12.8333 79.3333 31.2666 104.825 47.9499 120.867C54.1333 126.817 62.0666 129.792 69.9999 129.792C77.9333 129.792 85.8666 126.817 91.9916 120.867C108.675 104.825 127.108 79.3916 120.283 49.2916Z" fill="#F9AD91"/>
<path d="M70 78.5166C80.1482 78.5166 88.375 70.2898 88.375 60.1416C88.375 49.9934 80.1482 41.7666 70 41.7666C59.8518 41.7666 51.625 49.9934 51.625 60.1416C51.625 70.2898 59.8518 78.5166 70 78.5166Z" fill="#F9AD91"/>
</svg>
