<svg width="31" height="54" viewBox="0 0 31 54" fill="none" xmlns="http://www.w3.org/2000/svg">
<path d="M1 20.5C1 19.064 2.16402 17.9 3.6 17.9H24.4C25.836 17.9 27 19.064 27 20.5V45.2C27 45.2 27 53 19.2 53C11.4 53 16.6 53 8.8 53C1 53 1 45.2 1 45.2V20.5Z" fill="#DEB3A4" stroke="black" stroke-width="2" stroke-linecap="round" stroke-linejoin="round"/>
<path d="M20.5 11.4H7.5V17.9H20.5V11.4Z" stroke="black" stroke-width="2" stroke-linecap="round" stroke-linejoin="round"/>
<path d="M7.5 11.4C7.5 8.8 7.50013 11.4 7.5 7.5C7.49987 3.6 11.4 1 15.3 1C19.2 1 29.6 1 29.6 1C29.6 1 20.5001 3.6 20.5 8.8C20.4999 14 20.5 11.4 20.5 11.4" stroke="black" stroke-width="2" stroke-linecap="round" stroke-linejoin="round"/>
</svg>
