<svg width="76" height="54" viewBox="0 0 76 54" fill="none" xmlns="http://www.w3.org/2000/svg">
<path d="M13.3409 19.9113C14.4186 13.1918 12.5084 4.41857 11.205 0.999972C22.0452 5.66874 26.9847 11.0526 28.1272 13.4286C33.3255 24.2348 26.0629 30.4752 22.4138 30.6728C13.837 31.1383 12.5792 24.6637 13.3409 19.9113Z" fill="#DEB3A4" stroke="black" stroke-width="2" stroke-linecap="round" stroke-linejoin="round"/>
<path d="M27.4621 38.8441C26.145 37.9239 23.4357 35.0641 23.1368 30.9841Z" fill="#DEB3A4"/>
<path d="M27.4621 38.8441C26.145 37.9239 23.4357 35.0641 23.1368 30.9841" stroke="black" stroke-width="2" stroke-linecap="round" stroke-linejoin="round"/>
<path d="M48.7907 21.5581C58.9307 18.9944 70.153 10.9646 74.1861 7.04651C74.1861 25.186 69.5895 35.4313 66.9303 38.4884C54.8372 52.3953 41.6135 45.9377 39.1163 40.907C33.2451 29.0836 41.6196 23.3721 48.7907 21.5581Z" fill="#DEB3A4" stroke="black" stroke-width="2" stroke-linecap="round" stroke-linejoin="round"/>
<path d="M30.6511 53C31.1494 50.5814 33.5389 45.0186 39.1162 42.1163Z" fill="#DEB3A4"/>
<path d="M30.6511 53C31.1494 50.5814 33.5389 45.0186 39.1162 42.1163" stroke="black" stroke-width="2" stroke-linecap="round" stroke-linejoin="round"/>
</svg>
