<svg width="39" height="54" viewBox="0 0 39 54" fill="none" xmlns="http://www.w3.org/2000/svg">
<path d="M32.08 34.3867C31.3975 33.88 30.4525 32.7067 30.0062 32.1467C33.13 27.6933 37.75 19.32 37.75 9C37.75 3.8 35.8075 1 32.5 1C28.4575 1 22.105 6.49333 19.375 16.92C16.645 6.49333 10.2925 1 6.25 1C2.9425 1 1 3.8 1 9C1 19.32 5.62 27.6933 8.74375 32.1467C8.2975 32.7067 7.3525 33.88 6.67 34.3867C5.3575 35.48 2.3125 38.04 2.3125 42.3333C2.3125 48.2267 7.01125 53 12.8125 53C16.8812 53 19.375 51.5067 19.375 51.5067C19.375 51.5067 21.8688 53 25.9375 53C31.7388 53 36.4375 48.2267 36.4375 42.3333C36.4375 38.04 33.3925 35.48 32.08 34.3867ZM12.4188 28.2C9.7675 24.2 6.25 17.32 6.25 9C6.25 7.69333 6.4075 6.86667 6.565 6.41333C9.0325 7.24 15.07 13.64 15.4375 26.7867C14.2038 27.1067 13.2325 27.5867 12.4188 28.2ZM15.4375 40.3333C14.7025 40.3333 14.125 39.4267 14.125 38.3333C14.125 37.24 14.7025 36.3333 15.4375 36.3333C16.1725 36.3333 16.75 37.24 16.75 38.3333C16.75 39.4267 16.1725 40.3333 15.4375 40.3333ZM19.375 47.6667C17.9312 47.6667 16.75 45.7467 16.75 45C16.75 44.2533 17.9312 43.6667 19.375 43.6667C20.8188 43.6667 22 44.2533 22 45C22 45.7467 20.8188 47.6667 19.375 47.6667ZM23.3125 40.3333C22.5775 40.3333 22 39.4267 22 38.3333C22 37.24 22.5775 36.3333 23.3125 36.3333C24.0475 36.3333 24.625 37.24 24.625 38.3333C24.625 39.4267 24.0475 40.3333 23.3125 40.3333ZM23.3125 26.7867C23.68 13.64 29.7175 7.24 32.185 6.41333C32.3425 6.86667 32.5 7.69333 32.5 9C32.5 17.32 28.9825 24.2 26.3312 28.2C25.5175 27.5867 24.5462 27.1067 23.3125 26.7867Z" fill="#DEB3A4" stroke="black" stroke-width="2" stroke-linejoin="bevel"/>
</svg>
