<svg width="52" height="52" viewBox="0 0 52 52" fill="none" xmlns="http://www.w3.org/2000/svg">
<path d="M25.9518 47.2038V48.2038H26.9518H39.8675V51H8.46992V48.2038H21.3856H22.3856V47.2038V44.6859V43.7686L21.4718 43.6896C17.1946 43.3195 13.0894 42.0747 9.49815 40.066C6.26482 38.2575 3.53751 35.8801 1.48832 33.1064L4.50518 31.6218C6.24551 34.0054 8.53957 36.0412 11.2348 37.6025C14.1985 39.3194 17.5731 40.4199 21.0961 40.8254C24.6191 41.2309 28.2042 40.9315 31.5753 39.9486C34.9464 38.9657 38.0206 37.3232 40.5551 35.1394C43.09 32.9551 45.0193 30.2855 46.1796 27.3312C47.3403 24.3757 47.6964 21.2232 47.2157 18.1228C46.7352 15.0229 45.4333 12.0719 43.4243 9.4972C41.6367 7.20619 39.3329 5.26843 36.6646 3.79348L38.3209 1.29703C42.0871 3.29968 45.209 6.06714 47.4153 9.34454C49.7711 12.8442 51.0022 16.8043 51 20.8244V20.8249C51 32.6174 40.5468 42.521 26.8667 43.6895L25.9518 43.7676V44.6859V47.2038ZM24.1687 36.6115C21.7226 36.6115 19.3031 36.1962 17.0494 35.3919C14.7958 34.5876 12.7567 33.4116 11.0457 31.9373C9.33485 30.4632 7.9871 28.7212 7.07103 26.8156C6.15528 24.9107 5.68679 22.8756 5.68679 20.8249C5.68679 18.7743 6.15528 16.7392 7.07103 14.8343C7.9871 12.9286 9.33485 11.1867 11.0457 9.71261C12.7567 8.23827 14.7958 7.06233 17.0494 6.25798C19.3031 5.45364 21.7226 5.03837 24.1687 5.03837C29.1145 5.03837 33.8332 6.73259 37.2917 9.71261C40.7456 12.6886 42.6506 16.6902 42.6506 20.8249C42.6506 24.9597 40.7456 28.9613 37.2917 31.9373C33.8332 34.9173 29.1145 36.6115 24.1687 36.6115Z" fill="#DEB3A4" stroke="black" stroke-width="2"/>
</svg>
