<svg width="58" height="52" viewBox="0 0 58 52" fill="none" xmlns="http://www.w3.org/2000/svg">
<path d="M31.7366 5.89594L32.5 6.79813L33.2634 5.89594C35.8265 2.86684 39.7989 1 43.75 1C50.9477 1 56.5 6.55229 56.5 13.75C56.5 18.1623 54.5405 22.2515 50.4209 27.1704C46.4011 31.9701 40.4374 37.4313 32.5055 44.6435C24.5702 37.3097 18.6025 31.7869 14.5791 26.9829C10.4537 22.057 8.5 18.0316 8.5 13.75C8.5 6.55229 14.0523 1 21.25 1C25.2011 1 29.1735 2.86684 31.7366 5.89594ZM1 20C1 18.6053 1.23372 17.2647 1.64492 16.0083C2.24783 21.1649 4.71206 25.8036 8.66354 30.6332C13.0665 36.0147 19.3995 41.7305 27.2366 48.7383L25.0103 50.6678C17.0687 43.5656 11.0988 38.1588 7.07716 33.3868C2.95945 28.5009 1 24.4121 1 20Z" fill="#DEB3A4" stroke="black" stroke-width="2"/>
</svg>
