<svg width="140" height="140" viewBox="0 0 140 141" fill="none" xmlns="http://www.w3.org/2000/svg">
<path opacity="0.4" d="M94.7333 12.1667H45.2666C29.1666 12.1667 23.3333 18.0001 23.3333 34.3917V106.608C23.3333 123 29.1666 128.833 45.2666 128.833H94.675C110.833 128.833 116.667 123 116.667 106.608V34.3917C116.667 18.0001 110.833 12.1667 94.7333 12.1667Z" fill="#F9AD91"/>
<path d="M81.6666 36.9583H58.3333C55.9416 36.9583 53.9583 34.9749 53.9583 32.5833C53.9583 30.1916 55.9416 28.2083 58.3333 28.2083H81.6666C84.0583 28.2083 86.0416 30.1916 86.0416 32.5833C86.0416 34.9749 84.0583 36.9583 81.6666 36.9583Z" fill="#F9AD91"/>
<path d="M70 113.083C75.6379 113.083 80.2084 108.513 80.2084 102.875C80.2084 97.2369 75.6379 92.6665 70 92.6665C64.3621 92.6665 59.7917 97.2369 59.7917 102.875C59.7917 108.513 64.3621 113.083 70 113.083Z" fill="#F9AD91"/>
</svg>
