<svg width="47" height="57" viewBox="0 0 47 57" fill="none" xmlns="http://www.w3.org/2000/svg">
<path d="M15.44 29.08C15.44 29.08 0.320033 17.56 10.76 1L28.4 48.52" stroke="black" stroke-width="2" stroke-miterlimit="10" stroke-linecap="round" stroke-linejoin="round"/>
<path d="M36.6801 55.72C41.3524 55.72 45.14 51.9323 45.14 47.26C45.14 42.5877 41.3524 38.8 36.6801 38.8C32.0077 38.8 28.22 42.5877 28.22 47.26C28.22 51.9323 32.0077 55.72 36.6801 55.72Z" fill="#DEB3A4" stroke="black" stroke-width="2" stroke-miterlimit="10" stroke-linecap="round" stroke-linejoin="round"/>
<path d="M31.28 29.08C31.28 29.08 46.4 17.56 35.96 1L18.32 48.52" stroke="black" stroke-width="2" stroke-miterlimit="10" stroke-linecap="round" stroke-linejoin="round"/>
<path d="M9.86002 55.72C14.5323 55.72 18.32 51.9323 18.32 47.26C18.32 42.5877 14.5323 38.8 9.86002 38.8C5.18769 38.8 1.40002 42.5877 1.40002 47.26C1.40002 51.9323 5.18769 55.72 9.86002 55.72Z" fill="#DEB3A4" stroke="black" stroke-width="2" stroke-miterlimit="10" stroke-linecap="round" stroke-linejoin="round"/>
</svg>
