<svg width="60" height="66" viewBox="0 0 60 66" fill="none" xmlns="http://www.w3.org/2000/svg">
<path d="M23.3474 25.3322C17.8616 27.1215 15.5101 31.0113 14.5096 34.5875C13.9747 36.4997 13.8303 38.3195 13.8217 39.6664C13.8174 40.3379 13.8468 40.8865 13.8768 41.2635C13.8918 41.4519 13.9069 41.597 13.9179 41.6927C13.9234 41.7405 13.9279 41.776 13.9309 41.7983L13.934 41.8218L13.9345 41.8249L13.9346 41.8256C13.9802 42.1384 13.8753 42.4543 13.6516 42.6776C13.4278 42.9011 13.1114 43.0056 12.7985 42.9592L12.945 41.97C12.7985 42.9592 12.7979 42.9591 12.7972 42.959L12.7957 42.9588L12.7919 42.9582L12.7816 42.9566L12.7497 42.9514C12.7235 42.947 12.6876 42.9407 12.6427 42.9322C12.5528 42.9153 12.4266 42.8895 12.2692 42.8524C11.9546 42.7783 11.5139 42.6589 10.9889 42.4742C9.94122 42.1055 8.54361 41.4719 7.14283 40.4083C4.30303 38.2522 1.55005 34.4001 1.55005 27.725C1.55005 20.9919 4.69506 17.27 7.89256 15.2781C9.46763 14.2969 11.0349 13.7458 12.2041 13.4391C12.7904 13.2853 13.2817 13.1917 13.6307 13.1361C13.6383 13.1349 13.6457 13.1337 13.6531 13.1326C13.6629 13.1151 13.6729 13.0972 13.6832 13.0789C13.8681 12.7505 14.1425 12.2869 14.507 11.7331C15.2349 10.6272 16.3283 9.1523 17.7934 7.67466C20.7187 4.72431 25.1939 1.70001 31.2325 1.70001C37.2916 1.70001 41.3514 4.74426 43.8614 7.73602C45.1136 9.22847 45.9897 10.7169 46.5534 11.8317C46.8358 12.3901 47.0413 12.8579 47.1775 13.1898C47.213 13.2762 47.2438 13.3535 47.2701 13.4209C52.6627 17.294 55.7028 21.7288 57.1779 26.238C58.6714 30.8037 58.5371 35.3723 57.7188 39.4018C56.9008 43.4297 55.3927 46.9539 54.0961 49.4642C53.4466 50.7216 52.847 51.7307 52.4078 52.4282C52.1882 52.7771 52.0083 53.0485 51.8821 53.2344C51.819 53.3274 51.7693 53.3991 51.7347 53.4484C51.7173 53.4731 51.7038 53.4922 51.6942 53.5056L51.6829 53.5215L51.6795 53.5262L51.6784 53.5277C51.678 53.5282 51.6777 53.5287 50.8676 52.9425L51.6777 53.5287C51.4081 53.9013 50.9192 54.0419 50.4928 53.8696C50.0672 53.6975 49.8135 53.2579 49.8773 52.8034C49.8774 52.8026 49.8775 52.8018 49.8776 52.801M23.3474 25.3322L49.8776 52.801M23.3474 25.3322C23.4314 25.6886 23.5425 26.119 23.6864 26.6064C24.1051 28.025 24.8058 29.9412 25.9361 31.9256C28.201 35.9016 32.2304 40.206 39.1721 41.2269C45.3879 42.141 47.9727 45.1027 49.0814 47.704C49.6503 49.0387 49.8499 50.3268 49.9053 51.2857C49.9329 51.7634 49.9245 52.1539 49.9097 52.4202C49.9023 52.5531 49.8934 52.6545 49.8868 52.7197C49.8835 52.7522 49.8807 52.7757 49.8791 52.7895L49.8776 52.801M23.3474 25.3322L49.8776 52.801" fill="#DEB3A4" stroke="black" stroke-width="2" stroke-miterlimit="10" stroke-linecap="round" stroke-linejoin="round"/>
<path d="M47.595 45.82C47.595 45.82 39.7026 64.1075 29.8851 64.1075C22.2676 64.1075 16.3381 53.3764 14.196 48.9" stroke="black" stroke-width="2" stroke-miterlimit="10" stroke-linecap="round" stroke-linejoin="round"/>
</svg>
