<svg width="59" height="70" viewBox="0 0 59 70" fill="none" xmlns="http://www.w3.org/2000/svg">
<path d="M46.705 29.6789C40.8775 29.6789 36.16 34.3964 36.16 40.2239V68.2514H56.9726V40.2239C57.2501 34.3964 52.5325 29.6789 46.705 29.6789Z" stroke="black" stroke-width="2" stroke-miterlimit="10" stroke-linecap="round" stroke-linejoin="round"/>
<path d="M36.4375 60.4814H57.25" stroke="black" stroke-width="2" stroke-miterlimit="10" stroke-linecap="round" stroke-linejoin="round"/>
<path d="M23.6725 68.2514H1.75V39.6689C1.75 37.7264 3.41501 36.0614 5.35751 36.0614H20.065C22.0075 36.0614 23.6725 37.7264 23.6725 39.6689V68.2514Z" fill="#DEB3A4" stroke="black" stroke-width="2" stroke-miterlimit="10" stroke-linecap="round" stroke-linejoin="round"/>
<path d="M2.30493 43.8314H23.3949" stroke="black" stroke-width="2" stroke-miterlimit="10" stroke-linecap="round" stroke-linejoin="round"/>
<path d="M21.4524 18.8564H4.24744V36.0614H21.4524V18.8564Z" fill="#DEB3A4" stroke="black" stroke-width="2" stroke-miterlimit="10" stroke-linecap="round" stroke-linejoin="round"/>
<path d="M18.6775 18.8564H6.745V7.20137L16.18 1.37385C17.29 0.818853 18.6775 1.65137 18.6775 3.03887V18.8564Z" stroke="black" stroke-width="2" stroke-miterlimit="10" stroke-linecap="round" stroke-linejoin="round"/>
</svg>
