<svg width="32" height="32" viewBox="0 0 32 32" fill="none" xmlns="http://www.w3.org/2000/svg">
<path d="M29.3333 9.33317C29.3333 5.65127 26.3485 2.6665 22.6666 2.6665H16H9.33329C5.65139 2.6665 2.66663 5.65127 2.66663 9.33317V22.6665C2.66663 26.3484 5.65139 29.3332 9.33329 29.3332H22.6666C26.3485 29.3332 29.3333 26.3484 29.3333 22.6665V9.33317Z" stroke="#230A01" stroke-width="2" stroke-linecap="round" stroke-linejoin="round"/>
<path d="M20.7917 18.3986C21.3084 17.4029 21.4979 16.2696 21.3334 15.1599C21.1655 14.028 20.6381 12.9801 19.8289 12.171C19.0198 11.3619 17.9719 10.8344 16.84 10.6666C15.7304 10.502 14.5971 10.6916 13.6013 11.2082C12.6056 11.7249 11.7981 12.5424 11.2938 13.5444C10.7894 14.5464 10.6139 15.682 10.7921 16.7895C10.9703 17.8971 11.4932 18.9202 12.2865 19.7135C13.0797 20.5067 14.1028 21.0296 15.2104 21.2078C16.3179 21.386 17.4535 21.2105 18.4555 20.7061C19.4575 20.2018 20.275 19.3943 20.7917 18.3986Z" stroke="#230A01" stroke-width="2" stroke-linecap="round" stroke-linejoin="round"/>
<path d="M23.3334 8.6665H23.3467" stroke="#230A01" stroke-width="2" stroke-linecap="round" stroke-linejoin="round"/>
</svg>