<svg width="74" height="62" viewBox="0 0 74 62" fill="none" xmlns="http://www.w3.org/2000/svg">
<path d="M73.0001 32.389C70.2877 49.3334 57.2193 61 42.6713 61C40.6987 61 38.9727 60.7222 37.0001 60.4444C40.2055 56.8333 42.6713 52.6667 44.3973 48.5C44.3973 48.2223 44.6439 47.9445 44.6439 47.6667C45.3836 46.0001 45.8768 44.3334 46.37 42.6667C46.6165 42.1111 46.6165 41.2778 46.8631 40.7223C48.8357 38.7779 50.8083 37.1111 53.0275 35.7222C59.1918 32.3889 66.096 31.0001 73.0001 32.389Z" fill="#DEB3A4" stroke="black" stroke-width="2" stroke-miterlimit="10" stroke-linecap="round" stroke-linejoin="round"/>
<path d="M37 60.4444C35.0274 60.7222 33.3014 61 31.3288 61C16.5343 61 3.71233 49.3334 1 32.389C8.15068 31.0001 15.0548 32.3889 20.726 35.7222C22.9452 37.1111 25.1644 38.7779 26.8904 40.7223C27.137 41.2778 27.137 42.1111 27.3836 42.6667C27.8767 44.3334 28.3699 46.0001 28.863 47.6667C28.863 47.9445 29.1096 48.2223 29.1096 48.5C31.3288 52.6667 33.7945 56.8333 37 60.4444Z" fill="#DEB3A4" stroke="black" stroke-width="2" stroke-miterlimit="10" stroke-linecap="round" stroke-linejoin="round"/>
<path d="M47.8493 30.7222C47.8493 34.0556 47.6027 37.3889 46.863 40.7223C46.6164 41.2778 46.6165 42.1111 46.3699 42.6667C45.8767 44.3333 45.3836 46 44.6438 47.6667C44.6438 47.9445 44.3972 48.2222 44.3972 48.5C42.6712 52.9444 39.9589 56.8333 37 60.4444C33.7945 56.8333 31.3287 52.6667 29.6027 48.5C29.6027 48.2222 29.3561 47.9445 29.3561 47.6667C28.6164 46 28.1233 44.3333 27.8767 42.6667C27.6302 42.1111 27.6301 41.2778 27.3836 40.7223C25.6575 32.9445 26.1507 24.6112 28.3698 17.1112C30.0959 11.2778 33.0548 5.72222 37.2466 1C41.4384 5.72222 44.3973 11.2778 46.1233 17.1112C47.3562 21.5556 47.8493 26 47.8493 30.7222Z" fill="#DEB3A4" stroke="black" stroke-width="2" stroke-miterlimit="10" stroke-linecap="round" stroke-linejoin="round"/>
<path d="M60.6712 12.9445C60.6712 21.5556 57.9589 29.6111 53.274 35.7222C51.0548 37.1111 48.8356 38.7778 47.1096 40.7223C47.8493 37.389 48.0959 34.0556 48.0959 30.7223C48.0959 26.0001 47.3562 21.5556 46.1233 17.1112C50.3151 14.3334 55.2466 12.9445 60.6712 12.9445Z" stroke="black" stroke-width="2" stroke-miterlimit="10" stroke-linecap="round" stroke-linejoin="round"/>
<path d="M27.137 40.7223C25.1644 38.7778 23.1918 37.1111 20.9726 35.7222C16.2876 29.6111 13.5753 21.5556 13.5753 12.9445C18.7534 12.9445 23.9315 14.3334 28.1232 17.1112C25.6575 24.6112 25.4109 32.9445 27.137 40.7223Z" stroke="black" stroke-width="2" stroke-miterlimit="10" stroke-linecap="round" stroke-linejoin="round"/>
</svg>
