<svg width="56" height="56" viewBox="0 0 56 56" fill="none" xmlns="http://www.w3.org/2000/svg">
<mask id="path-1-outside-1_480_513" maskUnits="userSpaceOnUse" x="0" y="0" width="56" height="56" fill="black">
<rect fill="white" width="56" height="56"/>
<path d="M17.9348 2.00011L7.26697 2.00527C7.34474 2.62529 7.50718 3.39528 7.88969 4.13014C8.55633 5.41091 9.69245 6.55959 12.5655 6.55959C15.3762 6.55959 16.5508 5.41222 17.2548 4.12476C17.6529 3.39682 17.8389 2.62056 17.9347 2L17.9348 2.00011ZM33.7999 2.00011L23.1321 2.00527C23.2098 2.62529 23.3723 3.39528 23.7548 4.13014C24.4215 5.41091 25.5575 6.55959 28.4307 6.55959C31.2414 6.55959 32.416 5.41222 33.12 4.12476C33.5181 3.39682 33.7041 2.62089 33.7999 2.00011ZM48.7692 2.00011L38.1014 2.00527C38.1791 2.62529 38.3416 3.39528 38.7241 4.13014C38.9771 4.6161 39.2979 5.08284 39.7551 5.47514C39.7587 5.47843 39.7627 5.48139 39.7663 5.48458C39.8093 5.52114 39.8536 5.55682 39.8989 5.59218C39.9079 5.59877 39.9167 5.60579 39.9257 5.6126C39.9717 5.64773 40.019 5.68199 40.0678 5.71559L40.0809 5.72481C40.135 5.76192 40.1909 5.79815 40.2485 5.83329C40.2551 5.83735 40.2622 5.84097 40.2689 5.84504C40.3182 5.87468 40.3686 5.90367 40.4203 5.93177C40.4342 5.93946 40.4484 5.94671 40.4626 5.95428C40.5125 5.98063 40.5637 6.00633 40.6159 6.03114C40.6269 6.03641 40.6375 6.04179 40.6485 6.04684C40.7132 6.07703 40.7794 6.10613 40.8479 6.13391L40.8584 6.1383C40.9225 6.16421 40.9888 6.18881 41.0562 6.21263C41.0711 6.2179 41.0864 6.22295 41.1014 6.228C41.1567 6.247 41.2131 6.26511 41.2706 6.28257C41.2914 6.28883 41.3118 6.29531 41.333 6.30146C41.4073 6.32298 41.4834 6.34351 41.562 6.3625C41.566 6.3636 41.5707 6.36448 41.5749 6.36558C41.6748 6.38942 41.7752 6.41073 41.8761 6.42948C41.9381 6.44112 42.0014 6.45188 42.0658 6.46209C42.0888 6.46571 42.1114 6.46955 42.1349 6.47307C42.223 6.48602 42.3129 6.49799 42.4056 6.5082C42.4133 6.50897 42.4213 6.50952 42.429 6.5104C42.5137 6.5194 42.6007 6.52709 42.6892 6.53367C42.7193 6.53587 42.7499 6.53763 42.7805 6.5396C42.8479 6.54399 42.9167 6.54729 42.9864 6.55025C43.0214 6.55179 43.0563 6.55355 43.0918 6.55443C43.1925 6.5575 43.2946 6.55959 43.3999 6.55959C43.6041 6.55921 43.8082 6.55255 44.012 6.5396C44.04 6.53774 44.0683 6.53587 44.096 6.53378C44.1896 6.52673 44.2831 6.51813 44.3764 6.50798C44.3775 6.50776 44.3784 6.50798 44.3795 6.50776C44.4707 6.49755 44.5591 6.48536 44.6461 6.4723C44.6669 6.46922 44.6877 6.46571 44.7083 6.46242C44.7756 6.45165 44.8427 6.43986 44.9096 6.42706C44.931 6.423 44.9524 6.41916 44.9736 6.41498C45.0549 6.39852 45.135 6.38095 45.2124 6.36184C45.2132 6.36184 45.2139 6.3614 45.2146 6.36129C45.2939 6.34153 45.3705 6.32067 45.4457 6.29849C45.4619 6.29377 45.4777 6.28883 45.4937 6.28389C45.555 6.26522 45.6151 6.24568 45.6739 6.22537C45.6881 6.22043 45.7028 6.21571 45.717 6.21055C45.8564 6.16123 45.9933 6.10517 46.1273 6.04256C46.1363 6.0385 46.1451 6.0341 46.154 6.02982C46.209 6.00372 46.2634 5.97637 46.3172 5.94781C46.3276 5.94232 46.3382 5.93683 46.3486 5.93112C46.4677 5.86683 46.5834 5.79658 46.6954 5.72064L46.7144 5.70746C46.7634 5.67365 46.8112 5.63917 46.8579 5.60393C46.8644 5.59876 46.8716 5.59371 46.8784 5.58855C47.4197 5.17353 47.7955 4.66155 48.0889 4.12498C48.4871 3.39704 48.6731 2.621 48.7688 2.00022L48.7692 2.00011ZM16.3353 7.75449C15.7288 8.07037 15.0343 8.31576 14.2478 8.46157C14.2354 13.6494 14.2 21.7073 14.2168 26.1439C14.2203 27.0329 13.4755 27.7729 12.5085 27.7742C11.5416 27.7752 10.808 27.0436 10.8105 26.1497V26.149C10.8203 21.7489 10.8497 13.6679 10.8437 8.45674C10.0655 8.31104 9.37939 8.06938 8.78154 7.75866C8.78449 19.2165 8.73224 39.0526 8.71603 47.0149C8.7111 49.2822 10.4201 51.0488 12.4921 51.046C14.5642 51.0427 16.2926 49.2655 16.2848 47.0036C16.2566 38.799 16.3122 19.0172 16.3352 7.75449H16.3353ZM32.2003 7.75449C31.5928 8.07092 30.8971 8.31642 30.1092 8.46212C30.0948 12.5125 30.0662 16.3188 30.0819 20.4325C30.0851 21.3214 29.3403 22.0615 28.3731 22.0626C27.4063 22.0637 26.6726 21.3318 26.6753 20.4381V20.4376C26.6844 16.3426 26.7088 12.5186 26.7075 8.45674C25.9298 8.31093 25.2438 8.06938 24.6462 7.75877C24.6492 19.2166 24.5969 39.0527 24.5807 47.015C24.5758 49.2823 26.2851 51.0489 28.357 51.0461C30.429 51.0428 32.1575 49.2656 32.1497 47.0037C32.1214 38.7992 32.1771 19.0173 32.2001 7.7546L32.2003 7.75449ZM47.1696 7.75449C46.5634 8.07026 45.8692 8.31554 45.0832 8.46135C45.0719 14.1433 45.0339 26.6344 45.0511 31.205C45.0541 32.0939 44.3095 32.8341 43.3426 32.8353C42.3757 32.8364 41.6422 32.1045 41.6446 31.2106V31.2104C41.6549 26.6764 41.687 14.1985 41.6783 8.45707C40.8999 8.31148 40.2135 8.06971 39.6155 7.75877C39.6185 19.2167 39.5662 39.0529 39.55 47.0153C39.5451 49.2823 41.2544 51.0489 43.3263 51.0462C45.3983 51.0429 47.1268 49.2657 47.119 47.0038C47.0907 38.7993 47.1464 19.0174 47.1694 7.75471L47.1696 7.75449ZM2 10.4118V16.0942H6.72947C6.73199 14.1316 6.73473 12.1652 6.7355 10.4119L2 10.4118ZM18.3765 10.4118C18.3726 12.2212 18.3692 14.0124 18.3645 16.0942H22.5944C22.5968 14.1316 22.5996 12.1652 22.6004 10.4119H18.3766L18.3765 10.4118ZM34.2414 10.4118C34.2375 12.2212 34.2341 14.0124 34.2294 16.0942H37.5637C37.5662 14.1316 37.5689 12.1652 37.5697 10.4119L34.2414 10.4118ZM49.2107 10.4118C49.2068 12.2212 49.2034 14.0124 49.1987 16.0942H54V10.4118H49.2107ZM2 48.3175V54H54V48.3175H49.0286C48.4541 51.0273 46.1252 53.0936 43.3291 53.098H43.3289C40.5285 53.1018 38.2081 51.0301 37.6385 48.3175H34.0592C33.4848 51.0273 31.1559 53.0936 28.3598 53.098H28.3596C25.5592 53.1018 23.2388 51.0301 22.6692 48.3175H18.1946C17.62 51.0273 15.291 53.0936 12.4949 53.098H12.4947C9.69431 53.1018 7.37388 51.0301 6.80429 48.3175H2Z"/>
</mask>
<path d="M17.9348 2.00011L7.26697 2.00527C7.34474 2.62529 7.50718 3.39528 7.88969 4.13014C8.55633 5.41091 9.69245 6.55959 12.5655 6.55959C15.3762 6.55959 16.5508 5.41222 17.2548 4.12476C17.6529 3.39682 17.8389 2.62056 17.9347 2L17.9348 2.00011ZM33.7999 2.00011L23.1321 2.00527C23.2098 2.62529 23.3723 3.39528 23.7548 4.13014C24.4215 5.41091 25.5575 6.55959 28.4307 6.55959C31.2414 6.55959 32.416 5.41222 33.12 4.12476C33.5181 3.39682 33.7041 2.62089 33.7999 2.00011ZM48.7692 2.00011L38.1014 2.00527C38.1791 2.62529 38.3416 3.39528 38.7241 4.13014C38.9771 4.6161 39.2979 5.08284 39.7551 5.47514C39.7587 5.47843 39.7627 5.48139 39.7663 5.48458C39.8093 5.52114 39.8536 5.55682 39.8989 5.59218C39.9079 5.59877 39.9167 5.60579 39.9257 5.6126C39.9717 5.64773 40.019 5.68199 40.0678 5.71559L40.0809 5.72481C40.135 5.76192 40.1909 5.79815 40.2485 5.83329C40.2551 5.83735 40.2622 5.84097 40.2689 5.84504C40.3182 5.87468 40.3686 5.90367 40.4203 5.93177C40.4342 5.93946 40.4484 5.94671 40.4626 5.95428C40.5125 5.98063 40.5637 6.00633 40.6159 6.03114C40.6269 6.03641 40.6375 6.04179 40.6485 6.04684C40.7132 6.07703 40.7794 6.10613 40.8479 6.13391L40.8584 6.1383C40.9225 6.16421 40.9888 6.18881 41.0562 6.21263C41.0711 6.2179 41.0864 6.22295 41.1014 6.228C41.1567 6.247 41.2131 6.26511 41.2706 6.28257C41.2914 6.28883 41.3118 6.29531 41.333 6.30146C41.4073 6.32298 41.4834 6.34351 41.562 6.3625C41.566 6.3636 41.5707 6.36448 41.5749 6.36558C41.6748 6.38942 41.7752 6.41073 41.8761 6.42948C41.9381 6.44112 42.0014 6.45188 42.0658 6.46209C42.0888 6.46571 42.1114 6.46955 42.1349 6.47307C42.223 6.48602 42.3129 6.49799 42.4056 6.5082C42.4133 6.50897 42.4213 6.50952 42.429 6.5104C42.5137 6.5194 42.6007 6.52709 42.6892 6.53367C42.7193 6.53587 42.7499 6.53763 42.7805 6.5396C42.8479 6.54399 42.9167 6.54729 42.9864 6.55025C43.0214 6.55179 43.0563 6.55355 43.0918 6.55443C43.1925 6.5575 43.2946 6.55959 43.3999 6.55959C43.6041 6.55921 43.8082 6.55255 44.012 6.5396C44.04 6.53774 44.0683 6.53587 44.096 6.53378C44.1896 6.52673 44.2831 6.51813 44.3764 6.50798C44.3775 6.50776 44.3784 6.50798 44.3795 6.50776C44.4707 6.49755 44.5591 6.48536 44.6461 6.4723C44.6669 6.46922 44.6877 6.46571 44.7083 6.46242C44.7756 6.45165 44.8427 6.43986 44.9096 6.42706C44.931 6.423 44.9524 6.41916 44.9736 6.41498C45.0549 6.39852 45.135 6.38095 45.2124 6.36184C45.2132 6.36184 45.2139 6.3614 45.2146 6.36129C45.2939 6.34153 45.3705 6.32067 45.4457 6.29849C45.4619 6.29377 45.4777 6.28883 45.4937 6.28389C45.555 6.26522 45.6151 6.24568 45.6739 6.22537C45.6881 6.22043 45.7028 6.21571 45.717 6.21055C45.8564 6.16123 45.9933 6.10517 46.1273 6.04256C46.1363 6.0385 46.1451 6.0341 46.154 6.02982C46.209 6.00372 46.2634 5.97637 46.3172 5.94781C46.3276 5.94232 46.3382 5.93683 46.3486 5.93112C46.4677 5.86683 46.5834 5.79658 46.6954 5.72064L46.7144 5.70746C46.7634 5.67365 46.8112 5.63917 46.8579 5.60393C46.8644 5.59876 46.8716 5.59371 46.8784 5.58855C47.4197 5.17353 47.7955 4.66155 48.0889 4.12498C48.4871 3.39704 48.6731 2.621 48.7688 2.00022L48.7692 2.00011ZM16.3353 7.75449C15.7288 8.07037 15.0343 8.31576 14.2478 8.46157C14.2354 13.6494 14.2 21.7073 14.2168 26.1439C14.2203 27.0329 13.4755 27.7729 12.5085 27.7742C11.5416 27.7752 10.808 27.0436 10.8105 26.1497V26.149C10.8203 21.7489 10.8497 13.6679 10.8437 8.45674C10.0655 8.31104 9.37939 8.06938 8.78154 7.75866C8.78449 19.2165 8.73224 39.0526 8.71603 47.0149C8.7111 49.2822 10.4201 51.0488 12.4921 51.046C14.5642 51.0427 16.2926 49.2655 16.2848 47.0036C16.2566 38.799 16.3122 19.0172 16.3352 7.75449H16.3353ZM32.2003 7.75449C31.5928 8.07092 30.8971 8.31642 30.1092 8.46212C30.0948 12.5125 30.0662 16.3188 30.0819 20.4325C30.0851 21.3214 29.3403 22.0615 28.3731 22.0626C27.4063 22.0637 26.6726 21.3318 26.6753 20.4381V20.4376C26.6844 16.3426 26.7088 12.5186 26.7075 8.45674C25.9298 8.31093 25.2438 8.06938 24.6462 7.75877C24.6492 19.2166 24.5969 39.0527 24.5807 47.015C24.5758 49.2823 26.2851 51.0489 28.357 51.0461C30.429 51.0428 32.1575 49.2656 32.1497 47.0037C32.1214 38.7992 32.1771 19.0173 32.2001 7.7546L32.2003 7.75449ZM47.1696 7.75449C46.5634 8.07026 45.8692 8.31554 45.0832 8.46135C45.0719 14.1433 45.0339 26.6344 45.0511 31.205C45.0541 32.0939 44.3095 32.8341 43.3426 32.8353C42.3757 32.8364 41.6422 32.1045 41.6446 31.2106V31.2104C41.6549 26.6764 41.687 14.1985 41.6783 8.45707C40.8999 8.31148 40.2135 8.06971 39.6155 7.75877C39.6185 19.2167 39.5662 39.0529 39.55 47.0153C39.5451 49.2823 41.2544 51.0489 43.3263 51.0462C45.3983 51.0429 47.1268 49.2657 47.119 47.0038C47.0907 38.7993 47.1464 19.0174 47.1694 7.75471L47.1696 7.75449ZM2 10.4118V16.0942H6.72947C6.73199 14.1316 6.73473 12.1652 6.7355 10.4119L2 10.4118ZM18.3765 10.4118C18.3726 12.2212 18.3692 14.0124 18.3645 16.0942H22.5944C22.5968 14.1316 22.5996 12.1652 22.6004 10.4119H18.3766L18.3765 10.4118ZM34.2414 10.4118C34.2375 12.2212 34.2341 14.0124 34.2294 16.0942H37.5637C37.5662 14.1316 37.5689 12.1652 37.5697 10.4119L34.2414 10.4118ZM49.2107 10.4118C49.2068 12.2212 49.2034 14.0124 49.1987 16.0942H54V10.4118H49.2107ZM2 48.3175V54H54V48.3175H49.0286C48.4541 51.0273 46.1252 53.0936 43.3291 53.098H43.3289C40.5285 53.1018 38.2081 51.0301 37.6385 48.3175H34.0592C33.4848 51.0273 31.1559 53.0936 28.3598 53.098H28.3596C25.5592 53.1018 23.2388 51.0301 22.6692 48.3175H18.1946C17.62 51.0273 15.291 53.0936 12.4949 53.098H12.4947C9.69431 53.1018 7.37388 51.0301 6.80429 48.3175H2Z" fill="#DEB3A4"/>
<path d="M17.9348 2.00011L7.26697 2.00527C7.34474 2.62529 7.50718 3.39528 7.88969 4.13014C8.55633 5.41091 9.69245 6.55959 12.5655 6.55959C15.3762 6.55959 16.5508 5.41222 17.2548 4.12476C17.6529 3.39682 17.8389 2.62056 17.9347 2L17.9348 2.00011ZM33.7999 2.00011L23.1321 2.00527C23.2098 2.62529 23.3723 3.39528 23.7548 4.13014C24.4215 5.41091 25.5575 6.55959 28.4307 6.55959C31.2414 6.55959 32.416 5.41222 33.12 4.12476C33.5181 3.39682 33.7041 2.62089 33.7999 2.00011ZM48.7692 2.00011L38.1014 2.00527C38.1791 2.62529 38.3416 3.39528 38.7241 4.13014C38.9771 4.6161 39.2979 5.08284 39.7551 5.47514C39.7587 5.47843 39.7627 5.48139 39.7663 5.48458C39.8093 5.52114 39.8536 5.55682 39.8989 5.59218C39.9079 5.59877 39.9167 5.60579 39.9257 5.6126C39.9717 5.64773 40.019 5.68199 40.0678 5.71559L40.0809 5.72481C40.135 5.76192 40.1909 5.79815 40.2485 5.83329C40.2551 5.83735 40.2622 5.84097 40.2689 5.84504C40.3182 5.87468 40.3686 5.90367 40.4203 5.93177C40.4342 5.93946 40.4484 5.94671 40.4626 5.95428C40.5125 5.98063 40.5637 6.00633 40.6159 6.03114C40.6269 6.03641 40.6375 6.04179 40.6485 6.04684C40.7132 6.07703 40.7794 6.10613 40.8479 6.13391L40.8584 6.1383C40.9225 6.16421 40.9888 6.18881 41.0562 6.21263C41.0711 6.2179 41.0864 6.22295 41.1014 6.228C41.1567 6.247 41.2131 6.26511 41.2706 6.28257C41.2914 6.28883 41.3118 6.29531 41.333 6.30146C41.4073 6.32298 41.4834 6.34351 41.562 6.3625C41.566 6.3636 41.5707 6.36448 41.5749 6.36558C41.6748 6.38942 41.7752 6.41073 41.8761 6.42948C41.9381 6.44112 42.0014 6.45188 42.0658 6.46209C42.0888 6.46571 42.1114 6.46955 42.1349 6.47307C42.223 6.48602 42.3129 6.49799 42.4056 6.5082C42.4133 6.50897 42.4213 6.50952 42.429 6.5104C42.5137 6.5194 42.6007 6.52709 42.6892 6.53367C42.7193 6.53587 42.7499 6.53763 42.7805 6.5396C42.8479 6.54399 42.9167 6.54729 42.9864 6.55025C43.0214 6.55179 43.0563 6.55355 43.0918 6.55443C43.1925 6.5575 43.2946 6.55959 43.3999 6.55959C43.6041 6.55921 43.8082 6.55255 44.012 6.5396C44.04 6.53774 44.0683 6.53587 44.096 6.53378C44.1896 6.52673 44.2831 6.51813 44.3764 6.50798C44.3775 6.50776 44.3784 6.50798 44.3795 6.50776C44.4707 6.49755 44.5591 6.48536 44.6461 6.4723C44.6669 6.46922 44.6877 6.46571 44.7083 6.46242C44.7756 6.45165 44.8427 6.43986 44.9096 6.42706C44.931 6.423 44.9524 6.41916 44.9736 6.41498C45.0549 6.39852 45.135 6.38095 45.2124 6.36184C45.2132 6.36184 45.2139 6.3614 45.2146 6.36129C45.2939 6.34153 45.3705 6.32067 45.4457 6.29849C45.4619 6.29377 45.4777 6.28883 45.4937 6.28389C45.555 6.26522 45.6151 6.24568 45.6739 6.22537C45.6881 6.22043 45.7028 6.21571 45.717 6.21055C45.8564 6.16123 45.9933 6.10517 46.1273 6.04256C46.1363 6.0385 46.1451 6.0341 46.154 6.02982C46.209 6.00372 46.2634 5.97637 46.3172 5.94781C46.3276 5.94232 46.3382 5.93683 46.3486 5.93112C46.4677 5.86683 46.5834 5.79658 46.6954 5.72064L46.7144 5.70746C46.7634 5.67365 46.8112 5.63917 46.8579 5.60393C46.8644 5.59876 46.8716 5.59371 46.8784 5.58855C47.4197 5.17353 47.7955 4.66155 48.0889 4.12498C48.4871 3.39704 48.6731 2.621 48.7688 2.00022L48.7692 2.00011ZM16.3353 7.75449C15.7288 8.07037 15.0343 8.31576 14.2478 8.46157C14.2354 13.6494 14.2 21.7073 14.2168 26.1439C14.2203 27.0329 13.4755 27.7729 12.5085 27.7742C11.5416 27.7752 10.808 27.0436 10.8105 26.1497V26.149C10.8203 21.7489 10.8497 13.6679 10.8437 8.45674C10.0655 8.31104 9.37939 8.06938 8.78154 7.75866C8.78449 19.2165 8.73224 39.0526 8.71603 47.0149C8.7111 49.2822 10.4201 51.0488 12.4921 51.046C14.5642 51.0427 16.2926 49.2655 16.2848 47.0036C16.2566 38.799 16.3122 19.0172 16.3352 7.75449H16.3353ZM32.2003 7.75449C31.5928 8.07092 30.8971 8.31642 30.1092 8.46212C30.0948 12.5125 30.0662 16.3188 30.0819 20.4325C30.0851 21.3214 29.3403 22.0615 28.3731 22.0626C27.4063 22.0637 26.6726 21.3318 26.6753 20.4381V20.4376C26.6844 16.3426 26.7088 12.5186 26.7075 8.45674C25.9298 8.31093 25.2438 8.06938 24.6462 7.75877C24.6492 19.2166 24.5969 39.0527 24.5807 47.015C24.5758 49.2823 26.2851 51.0489 28.357 51.0461C30.429 51.0428 32.1575 49.2656 32.1497 47.0037C32.1214 38.7992 32.1771 19.0173 32.2001 7.7546L32.2003 7.75449ZM47.1696 7.75449C46.5634 8.07026 45.8692 8.31554 45.0832 8.46135C45.0719 14.1433 45.0339 26.6344 45.0511 31.205C45.0541 32.0939 44.3095 32.8341 43.3426 32.8353C42.3757 32.8364 41.6422 32.1045 41.6446 31.2106V31.2104C41.6549 26.6764 41.687 14.1985 41.6783 8.45707C40.8999 8.31148 40.2135 8.06971 39.6155 7.75877C39.6185 19.2167 39.5662 39.0529 39.55 47.0153C39.5451 49.2823 41.2544 51.0489 43.3263 51.0462C45.3983 51.0429 47.1268 49.2657 47.119 47.0038C47.0907 38.7993 47.1464 19.0174 47.1694 7.75471L47.1696 7.75449ZM2 10.4118V16.0942H6.72947C6.73199 14.1316 6.73473 12.1652 6.7355 10.4119L2 10.4118ZM18.3765 10.4118C18.3726 12.2212 18.3692 14.0124 18.3645 16.0942H22.5944C22.5968 14.1316 22.5996 12.1652 22.6004 10.4119H18.3766L18.3765 10.4118ZM34.2414 10.4118C34.2375 12.2212 34.2341 14.0124 34.2294 16.0942H37.5637C37.5662 14.1316 37.5689 12.1652 37.5697 10.4119L34.2414 10.4118ZM49.2107 10.4118C49.2068 12.2212 49.2034 14.0124 49.1987 16.0942H54V10.4118H49.2107ZM2 48.3175V54H54V48.3175H49.0286C48.4541 51.0273 46.1252 53.0936 43.3291 53.098H43.3289C40.5285 53.1018 38.2081 51.0301 37.6385 48.3175H34.0592C33.4848 51.0273 31.1559 53.0936 28.3598 53.098H28.3596C25.5592 53.1018 23.2388 51.0301 22.6692 48.3175H18.1946C17.62 51.0273 15.291 53.0936 12.4949 53.098H12.4947C9.69431 53.1018 7.37388 51.0301 6.80429 48.3175H2Z" stroke="black" stroke-width="4" stroke-linejoin="round" mask="url(#path-1-outside-1_480_513)"/>
</svg>
